<?xml version="1.0" encoding="utf-8"?>
<!-- Generator: Adobe Illustrator 24.0.0, SVG Export Plug-In . SVG Version: 6.00 Build 0)  -->
<svg version="1.1" id="Capa_1" xmlns="http://www.w3.org/2000/svg" xmlns:xlink="http://www.w3.org/1999/xlink" x="0px" y="0px"
	 viewBox="0 0 304.93 74.28" style="enable-background:new 0 0 304.93 74.28;" xml:space="preserve">
<style type="text/css">
	.st0{fill:#050006;}
	.st1{fill:#BFBFBE;}
</style>
<path class="st0" d="M234.35,70.77h-10.51V23.49h10.51V70.77z"/>
<path class="st0" d="M24.85,33.19c-1.62-0.02-3.24,0.3-4.73,0.94c-1.49,0.64-2.84,1.6-3.95,2.8c-2.36,2.46-3.54,5.87-3.54,10.19
	c0,4.31,1.18,7.8,3.58,10.31c1.12,1.21,2.49,2.18,4,2.83c1.52,0.65,3.15,0.97,4.8,0.95c3.1,0,5.58-0.86,7.45-2.55
	c1.74-1.53,3.03-3.52,3.71-5.75l9.29,3.41c-1.22,3.98-3.58,7.43-7.09,10.31c-3.5,2.88-7.94,4.31-13.36,4.31
	c-6.52,0-11.98-2.26-16.37-6.82c-4.4-4.56-6.6-10.23-6.6-17c0-6.86,2.16-12.53,6.52-17c4.36-4.48,9.74-6.74,16.21-6.74
	c5.54,0,10.06,1.44,13.56,4.31c3.32,2.63,5.71,6.28,6.8,10.39l-9.49,3.49c-0.57-2.27-1.79-4.33-3.5-5.91
	C30.36,34.01,27.95,33.19,24.85,33.19z"/>
<path class="st0" d="M62.9,57.3c1.17,1.19,2.57,2.14,4.1,2.79c1.54,0.65,3.19,0.99,4.85,0.99c1.67,0,3.32-0.32,4.86-0.97
	c1.54-0.64,2.94-1.59,4.11-2.77c2.44-2.51,3.67-5.96,3.67-10.43c0-4.39-1.22-7.8-3.67-10.27c-2.39-2.37-5.61-3.7-8.96-3.7
	c-3.35,0-6.57,1.33-8.96,3.7c-2.44,2.46-3.67,5.87-3.67,10.27C59.24,51.3,60.46,54.79,62.9,57.3z M71.86,23.37
	c6.8,0,12.42,2.22,16.82,6.65c4.4,4.44,6.64,10.06,6.64,16.92c0,6.86-2.2,12.49-6.64,16.96c-4.44,4.48-10.02,6.69-16.82,6.69
	c-6.72,0-12.3-2.22-16.74-6.69c-4.44-4.48-6.64-10.15-6.64-16.96c0-6.82,2.2-12.44,6.64-16.92C59.56,25.55,65.1,23.37,71.86,23.37z"
	/>
<path class="st0" d="M122.74,23.66v10.8c-1.15-0.18-2.3-0.27-3.46-0.29c-7.98,0-11.93,3.94-11.93,12.69V70.6H96.75V23.49h10.31v7.56
	c1.01-2.38,2.77-4.36,5.01-5.63c2.39-1.4,5.1-2.11,7.86-2.05C120.87,23.36,121.82,23.46,122.74,23.66z"/>
<path class="st0" d="M137.2,42.1h23.58c-0.04-1.33-0.34-2.64-0.9-3.84c-0.55-1.21-1.34-2.29-2.32-3.18c-2-1.89-4.89-2.83-8.63-2.83
	c-3.42,0-6.19,0.99-8.27,2.96C138.58,37.17,137.4,39.49,137.2,42.1z M162.05,53.68l9.65,2.83c-1.39,4.07-3.95,7.43-7.74,10.1
	c-3.79,2.67-8.43,3.98-13.97,3.98c-6.84,0-12.63-2.18-17.39-6.49c-4.77-4.31-7.17-10.1-7.17-17.37c0-6.82,2.32-12.45,6.96-16.8
	c4.4-4.28,10.3-6.64,16.42-6.57c7.37,0,13.12,2.09,17.27,6.24c4.15,4.15,6.23,9.78,6.23,16.86c0,1.89-0.08,3-0.29,3.37h-35.11
	c0.04,1.59,0.42,3.15,1.11,4.58c0.69,1.43,1.67,2.7,2.88,3.72c2.54,2.19,5.79,3.36,9.12,3.29
	C156.18,61.45,160.21,58.86,162.05,53.68z"/>
<path class="st0" d="M185.31,70.77h-10.75V2.93h10.83v27.31c1.14-1.89,3.01-3.49,5.62-4.76c2.8-1.33,5.87-1.99,8.96-1.93
	c6.72,0,11.97,2.18,15.76,6.57c3.79,4.39,5.66,9.98,5.66,16.8c0,6.94-2,12.61-5.95,17.09c-3.95,4.48-9.25,6.65-15.85,6.65
	s-11.36-2.34-14.3-7.06V70.77z M206.77,57.34c2.32-2.55,3.46-6,3.46-10.35s-1.14-7.76-3.42-10.27c-2.28-2.51-5.29-3.74-9.04-3.74
	c-3.62,0-6.6,1.23-8.96,3.74c-2.36,2.51-3.5,5.91-3.5,10.27s1.18,7.72,3.5,10.31c2.32,2.59,5.34,3.86,8.96,3.86
	C201.48,61.16,204.45,59.88,206.77,57.34z"/>
<path class="st0" d="M284.04,70.73h-46.35v-9.28l29.29-28.59H237.2v-9.36h46.76v9.01l-29.65,28.83h29.74v9.41V70.73z"/>
<path class="st1" d="M289.21,68.76c-0.7-0.69-1.26-1.51-1.63-2.42c-0.37-0.91-0.56-1.89-0.54-2.87c-0.02-0.99,0.16-1.97,0.54-2.89
	c0.37-0.92,0.93-1.75,1.63-2.44c0.68-0.72,1.5-1.29,2.41-1.67c0.91-0.38,1.89-0.57,2.88-0.54c2,0,3.92,0.8,5.33,2.21
	c1.41,1.41,2.21,3.33,2.21,5.33c0.02,0.99-0.16,1.97-0.54,2.88c-0.38,0.91-0.95,1.73-1.67,2.41c-0.7,0.7-1.53,1.25-2.44,1.63
	c-0.92,0.37-1.9,0.56-2.89,0.54c-0.98,0.02-1.96-0.17-2.87-0.54C290.72,70.02,289.9,69.46,289.21,68.76z"/>
</svg>
