<?xml version="1.0" encoding="utf-8"?>
<!-- Generator: Adobe Illustrator 24.0.0, SVG Export Plug-In . SVG Version: 6.00 Build 0)  -->
<svg version="1.1" id="Capa_1" xmlns="http://www.w3.org/2000/svg" xmlns:xlink="http://www.w3.org/1999/xlink" x="0px" y="0px"
	 viewBox="0 0 18 18" style="enable-background:new 0 0 18 18;" xml:space="preserve">
<style type="text/css">
	.st0{fill:#050006;}
</style>
<path class="st0" d="M12.02,2.06c-2.75-2.75-7.22-2.75-9.96,0c-2.75,2.75-2.75,7.22,0,9.96c2.45,2.44,6.25,2.71,9,0.8
	c0.06,0.27,0.19,0.53,0.4,0.75l4,4c0.58,0.58,1.52,0.58,2.1,0c0.58-0.58,0.58-1.52,0-2.1l-4-4c-0.21-0.21-0.47-0.34-0.75-0.4
	C14.73,8.31,14.47,4.51,12.02,2.06z M10.76,10.76c-2.05,2.05-5.39,2.05-7.44,0c-2.05-2.05-2.05-5.39,0-7.44
	c2.05-2.05,5.39-2.05,7.44,0C12.81,5.37,12.81,8.71,10.76,10.76z"/>
</svg>
