<?xml version="1.0" encoding="utf-8"?>
<!-- Generator: Adobe Illustrator 24.0.0, SVG Export Plug-In . SVG Version: 6.00 Build 0)  -->
<svg version="1.1" id="Capa_1" xmlns="http://www.w3.org/2000/svg" xmlns:xlink="http://www.w3.org/1999/xlink" x="0px" y="0px"
	 viewBox="0 0 18 18" style="enable-background:new 0 0 18 18;" xml:space="preserve">
<style type="text/css">
	.st0{clip-path:url(#SVGID_2_);}
	.st1{fill:#050006;}
</style>
<g>
	<defs>
		<rect id="SVGID_1_" width="18" height="18"/>
	</defs>
	<clipPath id="SVGID_2_">
		<use xlink:href="#SVGID_1_"  style="overflow:visible;"/>
	</clipPath>
	<g class="st0">
		<path class="st1" d="M17.87,4.44c-0.1-0.12-0.25-0.18-0.4-0.18H4.1L3.72,1.33C3.6,0.56,2.94,0,2.16,0H0.53C0.24,0,0,0.24,0,0.53
			c0,0.29,0.24,0.53,0.53,0.53h1.63c0.26,0,0.48,0.19,0.52,0.43l0.44,3.35c0,0.01,0,0.03,0.01,0.04l0.98,7.5
			c0.03,0.16,0.09,0.31,0.16,0.45c-0.62,0.22-1.06,0.8-1.06,1.49c0,0.87,0.71,1.57,1.58,1.57h0.62c-0.06,0.17-0.1,0.35-0.1,0.53
			c0,0.87,0.71,1.58,1.58,1.58c0.87,0,1.58-0.71,1.58-1.58c0-0.19-0.04-0.37-0.1-0.53h3.39c-0.06,0.17-0.1,0.35-0.1,0.53
			c0,0.87,0.71,1.58,1.58,1.58c0.87,0,1.58-0.71,1.58-1.58c0-0.19-0.04-0.36-0.1-0.53h1.68c0.29,0,0.53-0.24,0.53-0.53
			s-0.24-0.53-0.53-0.53H4.78c-0.29,0-0.53-0.24-0.53-0.53c0-0.29,0.24-0.53,0.58-0.53l3.2-0.29l7.62-0.69
			c0.72-0.06,1.3-0.61,1.42-1.33L18,4.85C18.02,4.7,17.97,4.55,17.87,4.44z M5.71,12.64c-0.28,0.03-0.52-0.17-0.57-0.42l-0.63-4.8
			h1.89l0.44,5.12L5.71,12.64z M10.09,12.24l-1.96,0.17h0l-0.03,0l-0.21,0.02L7.47,7.42h2.62V12.24z M13.29,11.95l-2.15,0.2V7.42
			h2.58L13.29,11.95z M16.03,11.31c-0.04,0.24-0.23,0.42-0.47,0.44l-1.2,0.11l0.42-4.44h1.78L16.03,11.31z"/>
	</g>
</g>
</svg>
