<?xml version="1.0" encoding="utf-8"?>
<!-- Generator: Adobe Illustrator 24.0.0, SVG Export Plug-In . SVG Version: 6.00 Build 0)  -->
<svg version="1.1" id="Capa_1" xmlns="http://www.w3.org/2000/svg" xmlns:xlink="http://www.w3.org/1999/xlink" x="0px" y="0px"
	 viewBox="0 0 18 18" style="enable-background:new 0 0 18 18;" xml:space="preserve">
<style type="text/css">
	.st0{clip-path:url(#SVGID_2_);}
	.st1{fill:#050006;}
</style>
<g>
	<defs>
		<rect id="SVGID_1_" width="18" height="18"/>
	</defs>
	<clipPath id="SVGID_2_">
		<use xlink:href="#SVGID_1_"  style="overflow:visible;"/>
	</clipPath>
	<g class="st0">
		<path class="st1" d="M8.87,8.67c1.19,0,2.22-0.43,3.07-1.27c0.84-0.84,1.27-1.87,1.27-3.07c0-1.19-0.43-2.22-1.27-3.07
			C11.09,0.43,10.06,0,8.87,0C7.68,0,6.65,0.43,5.81,1.27C4.96,2.11,4.54,3.14,4.54,4.34c0,1.19,0.43,2.22,1.27,3.07
			C6.65,8.24,7.68,8.67,8.87,8.67z M6.55,2.02C7.2,1.37,7.96,1.05,8.87,1.05c0.91,0,1.67,0.31,2.32,0.96
			c0.65,0.65,0.96,1.41,0.96,2.32c0,0.91-0.31,1.67-0.96,2.32C10.54,7.3,9.79,7.62,8.87,7.62c-0.91,0-1.67-0.31-2.32-0.96
			C5.91,6.01,5.59,5.25,5.59,4.34C5.59,3.42,5.91,2.66,6.55,2.02z"/>
		<path class="st1" d="M16.46,13.84c-0.02-0.35-0.07-0.73-0.15-1.14c-0.07-0.41-0.17-0.79-0.28-1.14c-0.12-0.36-0.27-0.72-0.47-1.07
			c-0.2-0.36-0.44-0.67-0.71-0.92c-0.28-0.27-0.62-0.48-1.02-0.64c-0.39-0.16-0.83-0.24-1.3-0.24c-0.18,0-0.36,0.08-0.7,0.3
			c-0.21,0.14-0.46,0.3-0.73,0.47c-0.24,0.15-0.56,0.29-0.95,0.42c-0.38,0.12-0.78,0.19-1.16,0.19c-0.39,0-0.78-0.06-1.16-0.19
			C7.43,9.76,7.11,9.62,6.87,9.47C6.6,9.29,6.35,9.13,6.14,8.99c-0.34-0.22-0.52-0.3-0.7-0.3c-0.47,0-0.91,0.08-1.3,0.24
			C3.74,9.09,3.4,9.3,3.12,9.57c-0.27,0.26-0.51,0.57-0.71,0.92c-0.2,0.34-0.35,0.7-0.47,1.07c-0.11,0.35-0.21,0.74-0.28,1.14
			c-0.07,0.4-0.12,0.79-0.15,1.14c-0.02,0.34-0.04,0.7-0.04,1.06c0,0.94,0.3,1.7,0.89,2.26C2.95,17.72,3.72,18,4.65,18h8.67
			c0.94,0,1.71-0.28,2.29-0.83c0.59-0.56,0.89-1.32,0.89-2.26C16.49,14.54,16.48,14.18,16.46,13.84z M14.88,16.4
			c-0.38,0.37-0.89,0.54-1.56,0.54H4.65c-0.67,0-1.18-0.18-1.56-0.54c-0.38-0.36-0.56-0.85-0.56-1.5c0-0.34,0.01-0.67,0.03-0.99
			c0.02-0.31,0.07-0.66,0.13-1.02c0.06-0.36,0.15-0.7,0.25-1.01c0.09-0.29,0.22-0.59,0.38-0.87c0.15-0.27,0.33-0.5,0.52-0.68
			c0.18-0.17,0.41-0.31,0.68-0.42c0.25-0.1,0.53-0.15,0.83-0.16c0.04,0.02,0.1,0.06,0.21,0.13c0.22,0.14,0.47,0.3,0.74,0.48
			c0.31,0.2,0.71,0.38,1.19,0.53c0.49,0.16,0.99,0.24,1.49,0.24c0.5,0,1-0.08,1.49-0.24c0.48-0.15,0.88-0.33,1.19-0.53
			c0.28-0.18,0.53-0.34,0.74-0.48c0.11-0.07,0.17-0.11,0.21-0.13c0.3,0.01,0.58,0.06,0.83,0.16c0.27,0.11,0.5,0.25,0.68,0.42
			c0.19,0.19,0.37,0.41,0.52,0.68c0.16,0.28,0.29,0.57,0.38,0.87c0.1,0.31,0.18,0.65,0.25,1.01c0.07,0.37,0.11,0.71,0.13,1.02v0
			c0.02,0.32,0.03,0.65,0.03,0.99C15.44,15.55,15.26,16.04,14.88,16.4z"/>
	</g>
</g>
</svg>
